<?xml version="1.0" ?><svg enable-background="new 0 0 512 512" id="Layer_1" version="1.1" viewBox="0 0 512 512" xml:space="preserve" xmlns="http://www.w3.org/2000/svg" xmlns:xlink="http://www.w3.org/1999/xlink"><g><g><linearGradient gradientUnits="userSpaceOnUse" id="SVGID_1_" x1="-0.0000027" x2="512" y1="256" y2="256"><stop offset="0" style="stop-color:#171ac2"/><stop offset="1" style="stop-color:#171ac2"/></linearGradient><circle cx="256" cy="256" fill="url(#SVGID_1_)" r="256"/><linearGradient gradientUnits="userSpaceOnUse" id="SVGID_2_" x1="42.6666641" x2="469.3333435" y1="256.0005188" y2="256.0005188"><stop offset="0" style="stop-color:#171ac2"/><stop offset="1" style="stop-color:#171ac2"/></linearGradient><path d="M256,469.3338623c-117.6314697,0-213.3333435-95.7018738-213.3333435-213.3333435    S138.3685303,42.6671982,256,42.6671982c117.6357422,0,213.3333435,95.7018661,213.3333435,213.333313    S373.6357422,469.3338623,256,469.3338623z" fill="url(#SVGID_2_)"/></g><path d="M337.1605225,213.0170593v-47.3722534H310.374939v25.6975861L264,153.8165283l-120,97.1013336   l6.1386719,7.5520172l23.9711914-19.3909454v135.104538h58.4181366V291.965332h62.9456024v82.2181396h58.4165344v-135.104538   l23.9706726,19.3909454L384,250.9178619L337.1605225,213.0170593z M278.3125305,236.4645386h-28.6239929v-28.6240082h28.6239929   V236.4645386z" opacity="0.3"/><path d="M329.1605225,205.0170593v-47.3722534H302.374939v25.6975861L256,145.8165283l-120,97.1013336   l6.1386719,7.552002l23.9711914-19.3909302v135.104538h58.4181366V283.965332h62.9456024v82.2181396h58.4165344v-135.104538   l23.9706726,19.3909302L376,242.9178619L329.1605225,205.0170593z M270.3125305,228.4645386h-28.6239929v-28.6240082h28.6239929   V228.4645386z" fill="#FFFFFF"/></g></svg>